HIERARCHY
ROOT Hips
{
  OFFSET 90.7885 88.945 -76.2838
  CHANNELS 6 Xposition Yposition Zposition Zrotation Xrotation Yrotation
  JOINT LeftUpLeg
  {
    OFFSET 8.64259 1.95398 -2.38835
    CHANNELS 3 Zrotation Xrotation Yrotation
    JOINT LeftLeg
    {
      OFFSET 43.7702 0 0
      CHANNELS 3 Zrotation Xrotation Yrotation
      JOINT LeftFoot
      {
        OFFSET 40.6238 0 0
        CHANNELS 3 Zrotation Xrotation Yrotation
        JOINT LeftToeBase
        {
          OFFSET 12.7242 0 0
          CHANNELS 3 Zrotation Xrotation Yrotation
          End Site
          {
            OFFSET 0 0 0
          }
        }
      }
    }
  }
  JOINT RightUpLeg
  {
    OFFSET -8.2249 1.95398 -2.59336
    CHANNELS 3 Zrotation Xrotation Yrotation
    JOINT RightLeg
    {
      OFFSET 43.5653 0 0
      CHANNELS 3 Zrotation Xrotation Yrotation
      JOINT RightFoot
      {
        OFFSET 40.6238 0 0
        CHANNELS 3 Zrotation Xrotation Yrotation
        JOINT RightToeBase
        {
          OFFSET 12.7242 0 0
          CHANNELS 3 Zrotation Xrotation Yrotation
          End Site
          {
            OFFSET 0 0 0
          }
        }
      }
    }
  }
  JOINT Spine
  {
    OFFSET 0.165834 0.87714 6.61349
    CHANNELS 3 Zrotation Xrotation Yrotation
    JOINT Spine1
    {
      OFFSET 7.38963 1.71661e-005 0
      CHANNELS 3 Zrotation Xrotation Yrotation
      JOINT Spine2
      {
        OFFSET 11.9445 1.14441e-005 0
        CHANNELS 3 Zrotation Xrotation Yrotation
        JOINT Spine3
        {
          OFFSET 14.7254 4.19617e-005 0
          CHANNELS 3 Zrotation Xrotation Yrotation
          JOINT Spine4
          {
            OFFSET 10.9679 0 0
            CHANNELS 3 Zrotation Xrotation Yrotation
            JOINT RightShoulder
            {
              OFFSET 2.46616 -1.6653 3.69651
              CHANNELS 3 Zrotation Xrotation Yrotation
              JOINT RightArm
              {
                OFFSET 13.0012 0 0
                CHANNELS 3 Zrotation Xrotation Yrotation
                JOINT RightForeArm
                {
                  OFFSET 28.7848 1.52588e-005 0
                  CHANNELS 3 Zrotation Xrotation Yrotation
                  JOINT RightHand
                  {
                    OFFSET 26.5688 1.52588e-005 0
                    CHANNELS 3 Zrotation Xrotation Yrotation
                    End Site
                    {
                      OFFSET 0 0 0
                    }
                  }
                }
              }
            }
            JOINT LeftShoulder
            {
              OFFSET 2.38034 -1.29275 -3.7523
              CHANNELS 3 Zrotation Xrotation Yrotation
              JOINT LeftArm
              {
                OFFSET 16.3182 6.10352e-005 0
                CHANNELS 3 Zrotation Xrotation Yrotation
                JOINT LeftForeArm
                {
                  OFFSET 27.0901 0 0
                  CHANNELS 3 Zrotation Xrotation Yrotation
                  JOINT LeftHand
                  {
                    OFFSET 24.5451 1.52588e-005 0
                    CHANNELS 3 Zrotation Xrotation Yrotation
                    End Site
                    {
                      OFFSET 0 0 0
                    }
                  }
                }
              }
            }
            JOINT Neck
            {
              OFFSET 5.0226 -0.0266342 0
              CHANNELS 3 Zrotation Xrotation Yrotation
              JOINT Head
              {
                OFFSET 6.69363 2.86102e-005 0
                CHANNELS 3 Zrotation Xrotation Yrotation
                End Site
                {
                  OFFSET 0 0 0
                }
              }
            }
          }
        }
      }
    }
  }
}
MOTION
Frames:	7
Frame Time:	0.0416667
30.5948 42.5409 9.24971 -68.7861 -83.6533 -68.0894 13.147 78.7109 -61.1346 -136.372 5.52372 8.98916 94.8069 14.1994 -2.53895 26.659 -2.07685 3.31938 -61.0949 83.7371 -62.3241 -135.194 -25.5213 -1.5012 98.187 -20.7381 -2.0635 21.8179 0.349652 0.751309 0.860428 13.2741 -90.2984 0.327606 1.60524 -0.508958 -11.3425 1.58128 -0.579144 -33.8856 1.68396 -0.00287261 -13.8729 1.68397 -0.00285803 86.31 -21.7353 -118.527 6.1105 -12.3646 -52.4572 5.13421 -42.3838 -11.8943 -42.8087 -9.11093 14.4635 -94.3056 -37.3808 68.2361 0.147968 12.1421 -76.9059 -1.11063 43.3493 -3.91305 10.8097 2.29549 16.0631 48.1127 -1.25849 0.243399 -5.76487 -1.29567 -0.304566 
30.3707 42.6051 9.10861 -66.235 -82.6843 -64.6453 19.8338 77.7495 -66.9261 -136.456 6.05306 8.88287 94.3871 14.0156 -2.79446 26.3953 -3.09932 4.78589 -43.803 84.4878 -78.4255 -134.982 -24.7028 -1.69392 98.2535 -20.6415 -2.00796 21.6413 0.451757 0.582331 0.999528 13.2069 -90.3529 0.462919 1.86216 -0.606934 -11.2069 1.83364 -0.688338 -33.7527 1.95845 -0.0190239 -13.7401 1.95845 -0.0190068 86.345 -21.4765 -118.613 5.76854 -12.4167 -52.4498 5.40651 -42.059 -11.8735 -42.2478 -9.14915 14.9987 -94.2585 -37.3411 68.3012 -0.16837 12.0364 -76.988 -0.742769 44.1716 -4.13745 10.1548 2.08464 15.2382 47.9101 -0.936665 1.01632 -5.14913 -1.39617 -1.35817 
30.4396 42.6011 9.10405 -65.693 -82.64 -64.0493 19.7154 77.6452 -66.8389 -136.335 5.88296 8.8834 94.7216 14.1459 -2.81659 26.4595 -2.61727 4.06373 -43.4975 84.3823 -78.7659 -134.946 -24.8512 -1.69953 98.0515 -20.492 -1.9628 21.8093 0.39503 0.661983 1.00441 13.218 -90.3611 0.440792 1.86888 -0.622083 -11.229 1.83969 -0.703762 -33.7749 1.96941 -0.0314384 -13.7623 1.96942 -0.0314253 86.4831 -21.4168 -118.349 6.44631 -12.0285 -52.5246 4.78968 -41.9754 -12.0584 -41.751 -8.84663 14.4279 -94.2672 -37.3105 68.275 -0.363303 11.7654 -77.0649 -0.504389 44.9273 -4.31472 11.3928 2.21625 14.4796 48.2035 -1.02659 0.705679 -5.56266 -1.3271 -0.730255 
30.448 42.597 9.10638 -66.2953 -82.6067 -64.7114 19.1422 77.6467 -66.1807 -136.411 5.86115 8.88569 93.8567 13.9845 -2.00083 24.5917 0.458946 0.0938796 -44.6598 84.3557 -77.541 -134.957 -24.9021 -1.68373 98.1168 -20.5632 -2.02883 21.5471 0.455608 0.593721 0.989659 13.2316 -90.3593 0.413597 1.84016 -0.619093 -11.2562 1.81113 -0.699522 -33.8018 1.94112 -0.0372293 -13.7892 1.94113 -0.0372269 86.4757 -21.3801 -118.388 5.65192 -12.393 -52.7795 5.19894 -42.1907 -12.0623 -42.5999 -9.23199 14.9966 -94.3002 -37.634 68.3391 0.0570988 11.7297 -77.1788 -0.712287 44.4797 -4.18282 10.554 2.07042 14.5313 48.3792 -0.877828 0.770186 -5.90414 -1.22253 -0.740259 
30.4204 42.4763 9.13049 -66.0183 -82.6702 -64.5418 18.9686 77.6127 -66.0294 -136.435 5.85944 8.90964 94.9487 14.2622 -2.80061 25.8636 -2.02757 3.34226 -45.7367 84.1087 -76.4404 -135.157 -24.7278 -1.66517 98.1667 -20.5353 -1.94694 21.818 0.453398 0.543382 0.99235 13.2145 -90.3546 0.447771 1.84719 -0.610678 -11.2221 1.81852 -0.69141 -33.7677 1.9453 -0.0270867 -13.7551 1.94529 -0.0270839 86.6717 -21.3017 -118.008 6.58065 -12.2584 -52.8497 4.91903 -42.7131 -11.8982 -42.7447 -9.23002 14.8015 -94.2693 -37.5314 68.3535 0.0997961 11.8879 -77.1907 -0.764493 44.5498 -4.22832 9.8585 2.01601 15.1032 47.9168 -0.916682 1.02616 -5.44067 -1.38679 -1.17728 
30.3866 42.3797 9.17084 -66.0738 -82.7531 -64.695 19.0955 77.623 -66.209 -136.608 5.86206 8.90515 94.6651 14.1064 -2.77535 25.4771 -2.17706 3.60217 -47.041 83.9901 -75.2283 -135.327 -24.7362 -1.63842 98.2412 -20.5691 -1.90585 21.7353 0.467424 0.532389 0.980154 13.1851 -90.3458 0.506415 1.82607 -0.595903 -11.1634 1.79808 -0.675715 -33.7089 1.92071 -0.0193503 -13.6962 1.92071 -0.0193527 86.5649 -21.5041 -118.116 6.1378 -12.6235 -52.654 4.94872 -42.3808 -12.1091 -42.4557 -9.15965 14.839 -94.251 -37.6239 68.4187 0.197255 12.0894 -77.0979 -0.900784 44.4726 -4.16904 10.0745 2.08471 15.3817 47.8754 -1.02677 0.798838 -5.7082 -1.37166 -0.84793 
30.4521 42.3147 9.22608 -66.2034 -82.8606 -64.883 18.7815 77.6023 -65.9581 -136.648 6.00154 8.91894 95.1066 14.2079 -3.1809 26.7476 -4.4256 6.65215 -49.2147 83.8492 -73.2315 -135.403 -25.0175 -1.62718 98.1894 -20.5651 -2.02958 21.9025 0.46064 0.512396 0.966993 13.1914 -90.3634 0.493981 1.79331 -0.631157 -11.1759 1.76379 -0.709496 -33.721 1.90006 -0.0628335 -13.7083 1.90007 -0.0628356 86.6976 -21.2573 -117.979 6.7653 -12.4092 -52.5405 4.46007 -42.5042 -12.3056 -41.7997 -8.90164 14.4814 -94.2546 -37.7575 68.4618 0.329761 12.1419 -77.3843 -1.32551 44.1263 -3.81116 10.1092 2.11177 15.5511 47.8746 -0.945044 1.23527 -5.23269 -1.52439 -1.39489 
